<svg id="SvgjsSvg1119" width="288" height="288" xmlns="http://www.w3.org/2000/svg" version="1.1" xmlns:xlink="http://www.w3.org/1999/xlink" xmlns:svgjs="http://svgjs.com/svgjs"><defs id="SvgjsDefs1120"></defs><g id="SvgjsG1121"><svg xmlns="http://www.w3.org/2000/svg" viewBox="0 0 24 24" width="288" height="288"><g data-name="Layer 2" fill="#0048a1" class="color000 svgShape"><path d="M21,2H3A1,1,0,0,0,2,3V21a1,1,0,0,0,1,1H21a1,1,0,0,0,1-1V3A1,1,0,0,0,21,2ZM20,20H4V4H20Z" fill="#0048a1" class="color000 svgShape"></path><path d="M15.64 15.63A4 4 0 0 0 16 14a4 4 0 1 0-4 4 4 4 0 0 0 2.39-.81l2 1.59a1 1 0 1 0 1.25-1.56zM12 16a2 2 0 1 1 2-2A2 2 0 0 1 12 16zM6 8H7A1 1 0 0 0 7 6H6A1 1 0 0 0 6 8zM10 8h8a1 1 0 0 0 0-2H10a1 1 0 0 0 0 2z" fill="#0048a1" class="color000 svgShape"></path></g></svg></g></svg>