<svg id="SvgjsSvg1102" width="288" height="288" xmlns="http://www.w3.org/2000/svg" version="1.1" xmlns:xlink="http://www.w3.org/1999/xlink" xmlns:svgjs="http://svgjs.com/svgjs"><defs id="SvgjsDefs1103"></defs><g id="SvgjsG1104"><svg xmlns="http://www.w3.org/2000/svg" data-name="Layer 1" viewBox="0 0 64 64" width="288" height="288"><path d="M28,55v7h8V55a1,1,0,0,0-1-1H29A1,1,0,0,0,28,55Z" fill="#ffffff" class="color000 svgShape"></path><rect width="3" height="2" x="27" y="45" fill="#ffffff" class="color000 svgShape"></rect><rect width="3" height="2" x="34" y="45" fill="#ffffff" class="color000 svgShape"></rect><rect width="3" height="2" x="27" y="49" fill="#ffffff" class="color000 svgShape"></rect><rect width="3" height="2" x="34" y="49" fill="#ffffff" class="color000 svgShape"></rect><path d="M32,2A30.034,30.034,0,0,0,2,32,29.684,29.684,0,0,0,7,48.567V62h4V58a4,4,0,0,1,8,0v4h4V43H41V62h4V56a2,2,0,0,1,2-2h4a2,2,0,0,1,2,2v6h4V48.567A29.684,29.684,0,0,0,62,32,30.034,30.034,0,0,0,32,2ZM12,34V32h6v2Zm7,15H11V47h8Zm0-5H11V42h8Zm34,6H45V46h8Zm0-8H45V38h8Zm0-8H45V30h8Zm4,10.593V26H40V41H36V39H35l-3-6-3,6H28v2H24V36H20V30H18V26l-3-3-3,3v4H10v6H7v8.593a27.915,27.915,0,0,1,.671-26.427L11,19l8-5,.386-6.986a27.782,27.782,0,0,1,8.5-2.709L26,7l1,7-4,4,11,1,10-3,8,5,4.62-2.327A27.948,27.948,0,0,1,57,44.593Z" fill="#ffffff" class="color000 svgShape"></path></svg></g></svg>