<svg width="16" height="16" viewBox="0 0 16 16" fill="none" xmlns="http://www.w3.org/2000/svg">
<path fill-rule="evenodd" clip-rule="evenodd" d="M3 5C3 2.23858 5.23858 0 8 0C10.7614 0 13 2.23858 13 5C14.1046 5 15 5.89543 15 7V13C15 14.1046 14.1046 15 13 15H3C1.89543 15 1 14.1046 1 13V7C1 5.89543 1.89543 5 3 5ZM8 2C9.65685 2 11 3.34315 11 5H5C5 3.34315 6.34315 2 8 2ZM3 7L3 13H13V7H3ZM7 11C7 11.5523 7.44772 12 8 12C8.55228 12 9 11.5523 9 11V10C9 9.44771 8.55228 9 8 9C7.44772 9 7 9.44772 7 10V11Z" fill="#92A7A7"/>
</svg>
