<svg width="16" height="16" viewBox="0 0 16 16" fill="none" xmlns="http://www.w3.org/2000/svg">
<path fill-rule="evenodd" clip-rule="evenodd" d="M13.9999 4H14V4.0001L13.9999 4ZM12.4382 4H3.56191L7.35986 7.16496C7.73071 7.474 8.26939 7.474 8.64023 7.16496L12.4382 4ZM2.00018 4H2V4.00021L2.00018 4ZM2 5.30182V12H14V5.3019L9.9206 8.7014C8.80806 9.62852 7.19203 9.62852 6.0795 8.7014L2 5.30182ZM0 4C0 2.89543 0.895431 2 2 2H14C15.1046 2 16 2.89543 16 4V12C16 13.1046 15.1046 14 14 14H2C0.895431 14 0 13.1046 0 12V4Z" fill="#92A7A7"/>
</svg>
