<svg id="SvgjsSvg1054" width="288" height="288" xmlns="http://www.w3.org/2000/svg" version="1.1" xmlns:xlink="http://www.w3.org/1999/xlink" xmlns:svgjs="http://svgjs.com/svgjs"><defs id="SvgjsDefs1055"></defs><g id="SvgjsG1056"><svg xmlns="http://www.w3.org/2000/svg" width="288" height="288" viewBox="0 0 16 16"><g transform="translate(2 -1036.362)" fill="#000000" class="color000 svgShape"><path style="line-height:normal;text-indent:0;text-align:start;text-decoration-line:none;text-decoration-style:solid;text-decoration-color:#000;text-transform:none;block-progression:tb;isolation:auto;mix-blend-mode:normal" fill="#1778f9" d="M 12.5 1 C 11.12521 1 10 2.1252 10 3.5 C 10 3.6671497 10.017136 3.8300843 10.048828 3.9882812 L 6.3769531 6.1914062 C 5.8277825 5.4721826 4.9701551 5 4 5 C 2.3490681 5 1 6.3491 1 8 C 1 9.651 2.3490681 11 4 11 C 5.0318324 11 5.9459919 10.472119 6.4863281 9.6738281 L 10.099609 11.84375 C 10.041688 12.054061 10 12.271958 10 12.5 C 10 13.8748 11.12521 15 12.5 15 C 13.87479 15 15 13.8748 15 12.5 C 15 11.1252 13.87479 10 12.5 10 C 11.71177 10 11.013798 10.376436 10.554688 10.951172 L 6.8925781 8.7519531 C 6.9561236 8.5097334 7 8.2615389 7 8 C 7 7.6774821 6.9350105 7.371751 6.8398438 7.0800781 L 10.445312 4.9160156 C 10.897668 5.5684606 11.650666 6 12.5 6 C 13.87479 6 15 4.8748 15 3.5 C 15 2.1252 13.87479 1 12.5 1 z M 12.5 2 C 13.334349 2 14 2.6657 14 3.5 C 14 4.3344 13.334349 5 12.5 5 C 11.665651 5 11 4.3344 11 3.5 C 11 2.6657 11.665651 2 12.5 2 z M 4 6 C 5.1104918 6 6 6.8895 6 8 C 6 9.1105 5.1104918 10 4 10 C 2.8895082 10 2 9.1105 2 8 C 2 6.8895 2.8895082 6 4 6 z M 12.5 11 C 13.334349 11 14 11.6657 14 12.5 C 14 13.3344 13.334349 14 12.5 14 C 11.665651 14 11 13.3344 11 12.5 C 11 11.6657 11.665651 11 12.5 11 z " color="#000" font-family="sans-serif" font-weight="400" overflow="visible" transform="translate(-2 1036.362)" class="color249fe6 svgShape"></path><path style="line-height:normal;text-indent:0;text-align:start;text-decoration-line:none;text-decoration-style:solid;text-decoration-color:#000;text-transform:none;block-progression:tb;isolation:auto;mix-blend-mode:normal" fill="#ffffff" d="M 12.5,2 C 13.334349,2 14,2.6657 14,3.5 14,4.3344 13.334349,5 12.5,5 11.665651,5 11,4.3344 11,3.5 11,2.6657 11.665651,2 12.5,2 Z M 4,6 C 5.1104918,6 6,6.8895 6,8 6,9.1105 5.1104918,10 4,10 2.8895082,10 2,9.1105 2,8 2,6.8895 2.8895082,6 4,6 Z m 8.5,5 C 13.334349,11 14,11.6657 14,12.5 14,13.3344 13.334349,14 12.5,14 11.665651,14 11,13.3344 11,12.5 11,11.6657 11.665651,11 12.5,11 Z" color="#000" font-family="sans-serif" font-weight="400" overflow="visible" transform="translate(-2 1036.362)" class="colorc2e4f8 svgShape"></path></g></svg></g></svg>