<svg xmlns="http://www.w3.org/2000/svg" enable-background="new 0 0 800 800" viewBox="183.37 204.43 432.75 390.68"><circle cx="362.08" cy="416.4" r="178.71" fill="#c0fdff"/><path d="M428.07,577.85h-77c-27.14,0-49.22-22.08-49.22-49.22V361.29c0-27.14,22.08-49.22,49.22-49.22h215.83      c27.14,0,49.22,22.08,49.22,49.22v167.34c0,13.15-5.12,25.5-14.41,34.8c-3.12,3.12-8.19,3.12-11.31,0      c-3.12-3.12-3.12-8.19,0-11.31c6.27-6.27,9.73-14.62,9.73-23.49V361.29c0-18.32-14.9-33.22-33.22-33.22H351.06      c-18.32,0-33.22,14.9-33.22,33.22v167.34c0,18.32,14.9,33.22,33.22,33.22h77c4.42,0,8,3.58,8,8S432.48,577.85,428.07,577.85z"/><path d="M540.79 577.85h-22.06c-4.42 0-8-3.58-8-8s3.58-8 8-8h22.06c4.42 0 8 3.58 8 8S545.21 577.85 540.79 577.85zM518.74 328.08c-4.42 0-8-3.58-8-8v-47.89c0-28.54-23.22-51.76-51.76-51.76-28.54 0-51.76 23.22-51.76 51.76v47.89c0 4.42-3.58 8-8 8s-8-3.58-8-8v-47.89c0-37.36 30.4-67.76 67.76-67.76s67.76 30.4 67.76 67.76v47.89C526.74 324.49 523.16 328.08 518.74 328.08zM458.98 493.03c-4.42 0-8-3.58-8-8v-96.16c0-4.42 3.58-8 8-8s8 3.58 8 8v96.16C466.98 489.44 463.4 493.03 458.98 493.03z"/><path d="M566.89,312.07h-40.15v-39.88c0-37.36-30.4-67.76-67.76-67.76c-37.37,0-67.76,30.4-67.76,67.76v39.88h-40.16      c-27.14,0-49.21,22.08-49.21,49.22v167.35c0,13.14,5.11,25.5,14.41,34.8c3.12,3.12,8.19,3.12,11.31,0      c3.13-3.13,3.13-8.19,0-11.32c-6.27-6.27-9.72-14.61-9.72-23.48V361.29c0-18.31,14.9-33.22,33.21-33.22h215.83      c18.32,0,33.22,14.91,33.22,33.22v167.35c0,18.31-14.9,33.21-33.22,33.21h-77c-4.42,0-8,3.58-8,8s3.58,8,8,8h77      c27.14,0,49.22-22.08,49.22-49.21V361.29C616.11,334.15,594.03,312.07,566.89,312.07z M510.74,312.07H407.22v-39.88      c0-28.54,23.22-51.76,51.76-51.76s51.76,23.22,51.76,51.76V312.07z"/><path d="M458.98,493.03c-4.42,0-8-3.58-8-8v-96.16c0-4.42,3.58-8,8-8s8,3.58,8,8v96.16      C466.98,489.44,463.4,493.03,458.98,493.03z"/></svg>