<svg id="SvgjsSvg1087" width="288" height="288" xmlns="http://www.w3.org/2000/svg" version="1.1" xmlns:xlink="http://www.w3.org/1999/xlink" xmlns:svgjs="http://svgjs.com/svgjs"><defs id="SvgjsDefs1088"></defs><g id="SvgjsG1089"><svg xmlns="http://www.w3.org/2000/svg" viewBox="0 0 48 48" width="288" height="288"><path d="M45,46H3V44H45ZM16,14V43H5V17a3,3,0,0,1,3-3ZM10,37H8v2h2Zm0-6H8v2h2Zm0-6H8v2h2Zm0-6H8v2h2Zm4,18H12v2h2Zm0-6H12v2h2Zm0-6H12v2h2Zm0-6H12v2h2Zm29-2V43H32V14h8A3,3,0,0,1,43,17ZM36,37H34v2h2Zm0-6H34v2h2Zm0-6H34v2h2Zm0-6H34v2h2Zm4,18H38v2h2Zm0-6H38v2h2Zm0-6H38v2h2Zm0-6H38v2h2ZM31,5V43H17V5a3,3,0,0,1,3-3h8A3,3,0,0,1,31,5ZM23,37H21v2h2Zm0-6H21v2h2Zm0-6H21v2h2Zm0-6H21v2h2Zm0-6H21v2h2Zm0-6H21V9h2Zm4,30H25v2h2Zm0-6H25v2h2Zm0-6H25v2h2Zm0-6H25v2h2Zm0-6H25v2h2Zm0-6H25V9h2Z" data-name="97 Office Building, Block Apartment, Buildings, Hotel, Offices" fill="#0048a1" class="color000 svgShape"></path></svg></g></svg>