<svg xmlns="http://www.w3.org/2000/svg" fill-rule="evenodd" stroke-linejoin="round" stroke-miterlimit="2" clip-rule="evenodd" viewBox="0 0 64 65"><rect width="64" height="64" y=".612" fill="none"/><path d="M21.295 13.284c2.154.01 4.308.871 5.875 2.373 1.265 1.215 2.144 2.823 2.474 4.543.442 2.306-.116 4.783-1.512 6.673-1.26 1.706-3.171 2.916-5.251 3.315-2.144.411-4.443-.037-6.274-1.234-2.033-1.329-3.457-3.556-3.789-5.977-.299-2.19.286-4.488 1.617-6.267 1.536-2.053 4.017-3.357 6.613-3.424.083-.002.165-.002.247-.002zm-.049 1.894c-1.972.009-3.938.948-5.185 2.524-1.316 1.664-1.764 3.974-1.147 6.024.562 1.868 1.998 3.461 3.81 4.215 1.607.668 3.481.668 5.088 0 2.118-.881 3.713-2.916 4.029-5.221.188-1.372-.063-2.797-.711-4.015-1.06-1.995-3.173-3.385-5.478-3.516-.135-.008-.271-.011-.406-.011zM26.052 32.633c.051.014.104.023.155.04.452.159.732.694.594 1.163-.041.137-.068.164-.141.286l-4.624 6.398c-.094.109-.112.144-.232.227-.314.215-.757.215-1.072 0-.12-.083-.138-.118-.232-.227l-4.624-6.398c-.028-.046-.059-.09-.082-.137-.211-.43-.046-1.004.39-1.246.093-.052.195-.088.3-.106.053-.009.106-.009.159-.013l9.25 0c.053.004.106.009.159.013zm-7.556 1.881l2.772 3.835 2.772-3.835-5.544 0z"/><path d="M21.367,39.024c0.423,0.059 0.78,0.393 0.839,0.81c0.008,0.058 0.007,0.073 0.009,0.132l0,11.988c-0.009,0.245 -0.043,0.317 -0.111,0.445c-0.294,0.554 -1.202,0.663 -1.602,0.112c-0.113,-0.156 -0.171,-0.26 -0.181,-0.557l0,-11.988c0.007,-0.203 0.025,-0.237 0.057,-0.324c0.121,-0.332 0.437,-0.581 0.791,-0.618c0.127,-0.013 0.157,-0.003 0.198,0Z"/><path d="M25.739,32.62c2.038,0.01 4.057,0.773 5.589,2.141c1.681,1.5 2.72,3.688 2.814,5.943c0.004,0.118 0.007,0.235 0.007,0.352l0,10.898c-0.013,0.146 -0.007,0.186 -0.057,0.324c-0.095,0.26 -0.307,0.472 -0.566,0.566c-0.139,0.051 -0.179,0.045 -0.324,0.058l-23.868,0c-0.145,-0.013 -0.185,-0.007 -0.324,-0.058c-0.259,-0.094 -0.471,-0.306 -0.566,-0.566c-0.05,-0.138 -0.044,-0.178 -0.057,-0.324l0,-10.897c0.002,-1.66 0.499,-3.304 1.413,-4.676c1.459,-2.187 3.957,-3.633 6.645,-3.753c0.117,-0.005 0.235,-0.008 0.352,-0.008c2.981,-0.006 5.961,-0.006 8.942,0Zm-8.914,1.894c-1.993,0.004 -3.949,0.949 -5.185,2.55c-0.873,1.132 -1.357,2.548 -1.359,3.994l0,9.949l21.974,0c0,-3.323 0.006,-6.647 0,-9.971c-0.007,-1.582 -0.604,-3.152 -1.66,-4.334c-1.223,-1.37 -3.034,-2.188 -4.884,-2.188l-8.886,0Z"/><path fill="#2fdf2a" d="M44.341,35.691c-9.651,-3.096 -10.279,-18.595 -10.279,-18.595c3.938,-0.171 7.357,-1.483 10.307,-3.828l0.035,0.027c2.942,2.328 6.349,3.631 10.272,3.801c0,0 -0.629,15.53 -10.307,18.604l-0.028,-0.009Z"/><path d="M44.461,12.325c0.482,0.07 0.949,0.562 1.463,0.918c2.567,1.773 5.659,2.768 8.794,2.907c0,0 0.381,0.031 0.626,0.275c0.369,0.366 0.269,0.999 0.215,1.599c-0.367,4.066 -1.344,8.149 -3.267,11.724c-1.628,3.026 -4.135,5.679 -7.452,6.794c-0.619,0.208 -1.616,-0.205 -2.484,-0.648c-3.748,-1.91 -6.169,-5.855 -7.557,-10.011c-0.941,-2.815 -1.538,-5.738 -1.683,-8.732c0,0 0.021,-0.471 0.278,-0.726c0.399,-0.397 1.164,-0.292 1.881,-0.372c3.062,-0.343 5.993,-1.553 8.439,-3.475l0.14,-0.105c0.157,-0.092 0.233,-0.166 0.607,-0.148Zm-0.126,2.16c-2.69,1.967 -5.876,3.174 -9.227,3.489l-0.031,0.003c0.381,4.007 1.321,7.997 3.39,11.5c1.348,2.281 3.273,4.291 5.902,5.224c3.413,-1.201 5.784,-4.468 7.134,-7.705c1.185,-2.843 1.851,-5.891 2.152,-8.96l0.006,-0.059c-0.072,-0.007 -0.144,-0.014 -0.215,-0.021c-3.252,-0.335 -6.402,-1.54 -9.045,-3.473c0,0 -0.005,-0.043 -0.066,0.002Z"/><path d="M49.097 20.05c.214.023.277.054.389.117.471.262.629.969.286 1.409-.032.041-.042.05-.078.088l-6.979 6.979c-.136.128-.185.151-.281.194-.312.141-.7.096-.973-.118-.04-.032-.048-.041-.085-.076l-2.332-2.332c-.505-.537-.155-1.604.655-1.616.214-.004.428.068.597.2.041.032.049.041.087.077l1.662 1.662 6.31-6.31c0 0 .402-.29.742-.274zM49.946 40.6c.233.023.299.059.419.13.679.402.521 1.728-.483 1.762l-11.026 0c-.234-.008-.303-.039-.427-.102-.573-.289-.685-1.23-.109-1.626.104-.072.223-.122.347-.147.062-.013.126-.017.189-.019l11.026 0c.021.001.042.001.064.002zM49.946 45.805c.688.069 1.15.975.659 1.556-.15.178-.367.296-.596.327-.056.008-.071.007-.127.009l-11.026 0c-.715-.024-1.228-.962-.723-1.559.15-.177.367-.296.597-.327.055-.007.07-.006.126-.008l11.026 0c.021.001.042.001.064.002zM49.946 51.01c.681.068 1.149.977.659 1.556-.15.177-.367.296-.596.327-.056.008-.071.007-.127.009l-11.026 0c-.234-.008-.303-.04-.427-.102-.574-.29-.694-1.225-.109-1.626.104-.072.223-.122.347-.148.062-.012.126-.016.189-.019l11.026 0c.021.001.042.002.064.003z"/></svg>