<svg width="11" height="11" viewBox="0 0 11 11" fill="none" xmlns="http://www.w3.org/2000/svg">
<path d="M10.2465 6.05222L10.0918 5.84527C9.92448 5.61987 9.92029 5.31456 10.0855 5.08506L10.2361 4.87606C10.4661 4.5564 10.3595 4.11176 10.006 3.92529L9.776 3.8044C9.52505 3.67326 9.38703 3.39868 9.43513 3.12206L9.47904 2.87002C9.54596 2.4848 9.2511 2.12826 8.85167 2.11187L8.59027 2.10162C8.30586 2.08933 8.0591 1.90081 7.97963 1.63238L7.90644 1.3865C7.7956 1.00947 7.37317 0.814805 7.00512 0.970534L6.76463 1.07094C6.50322 1.18159 6.1979 1.11602 6.0076 0.907013L5.83403 0.71645C5.56844 0.425482 5.1021 0.427531 4.8386 0.724646L4.66712 0.917258C4.47891 1.12831 4.17568 1.19798 3.91218 1.09143L3.6696 0.993074C3.29945 0.843492 2.88121 1.04635 2.77455 1.42338L2.70554 1.67132C2.63026 1.94179 2.38768 2.13441 2.10327 2.14875L1.84186 2.16309C1.44244 2.18563 1.15385 2.54627 1.22704 2.93149L1.27514 3.18353C1.32742 3.4581 1.19358 3.73473 0.944726 3.86997L0.716782 3.99496C0.367546 4.18552 0.267167 4.63222 0.503476 4.94778L0.658227 5.15473C0.825526 5.38013 0.829708 5.68544 0.664501 5.91494L0.513932 6.12394C0.283897 6.4436 0.390549 6.88824 0.743968 7.07471L0.974003 7.1956C1.22495 7.32674 1.36297 7.60132 1.31487 7.87794L1.27096 8.12998C1.20404 8.5152 1.4989 8.87174 1.89833 8.88813L2.15973 8.89838C2.44414 8.91068 2.6909 9.09919 2.77037 9.36762L2.84356 9.61351C2.9544 9.99053 3.37683 10.1852 3.74488 10.0295L3.98538 9.92906C4.24678 9.81841 4.5521 9.88398 4.7424 10.093L4.91598 10.2836C5.18365 10.5745 5.65 10.5725 5.9114 10.2754L6.08288 10.0827C6.27109 9.87169 6.57432 9.80202 6.83782 9.90857L7.0804 10.0069C7.45055 10.1565 7.86879 9.95365 7.97545 9.57662L8.04446 9.32869C8.11974 9.05821 8.36233 8.86559 8.64673 8.85125L8.90814 8.83691C9.30756 8.81437 9.59615 8.45373 9.52296 8.06851L9.47486 7.81647C9.42258 7.5419 9.55642 7.26527 9.80527 7.13003L10.0332 7.00504C10.3825 6.81653 10.4828 6.36983 10.2465 6.05222Z" fill="#40A4F1"/>
<path d="M6.68723 4.31794L4.76116 6.14117L3.98258 5.40429C3.88691 5.31382 3.73192 5.31377 3.63624 5.40434C3.54052 5.49495 3.54052 5.64169 3.63624 5.73226L4.58802 6.63313C4.63585 6.67835 4.69851 6.70098 4.76116 6.70098C4.82382 6.70098 4.88665 6.67835 4.93446 6.63306C4.93461 6.63286 4.93472 6.63267 4.93496 6.63244L7.03356 4.64581C7.12927 4.55529 7.12927 4.40845 7.03356 4.31793C6.9379 4.22735 6.7828 4.22735 6.68723 4.31794Z" fill="white" stroke="white" stroke-width="0.5"/>
</svg>
