<svg id="SvgjsSvg1001" width="288" height="288" xmlns="http://www.w3.org/2000/svg" version="1.1" xmlns:xlink="http://www.w3.org/1999/xlink" xmlns:svgjs="http://svgjs.com/svgjs"><defs id="SvgjsDefs1002"></defs><g id="SvgjsG1008"><svg xmlns="http://www.w3.org/2000/svg" width="288" height="288" viewBox="0 0 24 24"><path d="M2 11H13a2 2 0 002-2V2a2 2 0 00-2-2H2A2 2 0 000 2V9A2 2 0 002 11zM2 2H13V9H2zM22 0H19a2 2 0 00-2 2V9a2 2 0 002 2h3a2 2 0 002-2V2A2 2 0 0022 0zm0 9H19V2h3zM5 13H2a2 2 0 00-2 2v7a2 2 0 002 2H5a2 2 0 002-2V15A2 2 0 005 13zm0 9H2V15H5zM22 13H11a2 2 0 00-2 2v7a2 2 0 002 2H22a2 2 0 002-2V15A2 2 0 0022 13zm0 9H11V15H22z" fill="#3a9dbf" class="color000 svgShape"></path></svg></g></svg>