<svg id="SvgjsSvg1001" width="288" height="288" xmlns="http://www.w3.org/2000/svg" version="1.1" xmlns:xlink="http://www.w3.org/1999/xlink" xmlns:svgjs="http://svgjs.com/svgjs"><defs id="SvgjsDefs1002"></defs><g id="SvgjsG1008"><svg xmlns="http://www.w3.org/2000/svg" width="288" height="288" data-name="Layer 1" viewBox="0 0 24 24"><path d="M24,10v9a5.006,5.006,0,0,1-5,5H5a5.006,5.006,0,0,1-5-5V8A5.006,5.006,0,0,1,5,3h8a1,1,0,0,1,0,2H5A2.99,2.99,0,0,0,2.361,6.6l7.517,7.518a3.008,3.008,0,0,0,4.244,0L17.943,10.3a1,1,0,0,1,1.414,1.414l-3.821,3.822a5.008,5.008,0,0,1-7.072,0L2,9.071V19a3,3,0,0,0,3,3H19a3,3,0,0,0,3-3V10A1,1,0,0,1,24,10ZM17,5h2V7a1,1,0,0,0,2,0V5h2a1,1,0,0,0,0-2H21V1a1,1,0,0,0-2,0V3H17A1,1,0,0,0,17,5Z" fill="#3a9dbf" class="color000 svgShape"></path></svg></g></svg>