<svg id="SvgjsSvg1001" width="288" height="288" xmlns="http://www.w3.org/2000/svg" version="1.1" xmlns:xlink="http://www.w3.org/1999/xlink" xmlns:svgjs="http://svgjs.com/svgjs"><defs id="SvgjsDefs1002"></defs><g id="SvgjsG1008"><svg xmlns="http://www.w3.org/2000/svg" width="288" height="288" viewBox="0 0 24 24"><path d="M22.485,10.975,12,17.267,1.515,10.975A1,1,0,1,0,.486,12.69l11,6.6a1,1,0,0,0,1.03,0l11-6.6a1,1,0,1,0-1.029-1.715Z" fill="#3a9dbf" class="color000 svgShape"></path><path d="M22.485 15.543L12 21.834 1.515 15.543A1 1 0 10.486 17.258l11 6.6a1 1 0 001.03 0l11-6.6a1 1 0 10-1.029-1.715zM12 14.773a2.976 2.976 0 01-1.531-.425L.485 8.357a1 1 0 010-1.714L10.469.652a2.973 2.973 0 013.062 0l9.984 5.991a1 1 0 010 1.714l-9.984 5.991A2.976 2.976 0 0112 14.773zM2.944 7.5L11.5 12.633a.974.974 0 001 0L21.056 7.5 12.5 2.367a.974.974 0 00-1 0h0z" fill="#3a9dbf" class="color000 svgShape"></path></svg></g></svg>