<?xml version="1.0" encoding="utf-8"?>
<svg viewBox="137.808 119.003 221.602 288" xmlns="http://www.w3.org/2000/svg">
  <g id="SvgjsG1008" transform="matrix(1, 0, 0, 1, 104.608841, 119.002739)">
    <svg xmlns="http://www.w3.org/2000/svg" viewBox="94.578 22.357 307.78 400" width="288" height="288">
      <path fill="#4cb9f9" d="M256.08,54.999c84.87,0,153.81,68.94,153.81,153.96c0,77.059-87.02,195.03-153.2,246.04    c-85.33-69.24-154.58-167.75-154.58-246.04C102.11,123.938,171.05,54.999,256.08,54.999z M330.87,205.798    c0-41.34-33.521-74.86-74.87-74.86c-41.35,0-74.86,33.52-74.86,74.86c0,41.35,33.51,74.87,74.86,74.87    C297.35,280.668,330.87,247.148,330.87,205.798z" transform="translate(-7.532 -32.642)" class="colorff7979 svgShape"/>
    </svg>
  </g>
</svg>